<svg width="35" height="35" viewBox="0 0 35 35" fill="none" xmlns="http://www.w3.org/2000/svg">
<g id="icon-menu">
<g id="Shape">
<path d="M2.91675 8.75C2.91675 7.94459 3.56967 7.29167 4.37508 7.29167H30.6251C31.4305 7.29167 32.0834 7.94459 32.0834 8.75C32.0834 9.55542 31.4305 10.2083 30.6251 10.2083H4.37508C3.56967 10.2083 2.91675 9.55542 2.91675 8.75Z" fill="#2D3648"/>
<path d="M2.91675 17.5C2.91675 16.6946 3.56967 16.0417 4.37508 16.0417H30.6251C31.4305 16.0417 32.0834 16.6946 32.0834 17.5C32.0834 18.3054 31.4305 18.9583 30.6251 18.9583H4.37508C3.56967 18.9583 2.91675 18.3054 2.91675 17.5Z" fill="#2D3648"/>
<path d="M4.37508 24.7917C3.56967 24.7917 2.91675 25.4446 2.91675 26.25C2.91675 27.0554 3.56967 27.7083 4.37508 27.7083H30.6251C31.4305 27.7083 32.0834 27.0554 32.0834 26.25C32.0834 25.4446 31.4305 24.7917 30.6251 24.7917H4.37508Z" fill="#2D3648"/>
</g>
</g>
</svg>
